<?xml version="1.0" encoding="iso-8859-1"?>
<!-- Generator: Adobe Illustrator 17.1.0, SVG Export Plug-In . SVG Version: 6.00 Build 0)  -->
<!DOCTYPE svg PUBLIC "-//W3C//DTD SVG 1.1//EN" "http://www.w3.org/Graphics/SVG/1.1/DTD/svg11.dtd">
<svg version="1.1" id="Capa_1" xmlns="http://www.w3.org/2000/svg" xmlns:xlink="http://www.w3.org/1999/xlink" x="0px" y="0px"
	 viewBox="0 0 465.681 465.681" style="enable-background:new 0 0 465.681 465.681;" xml:space="preserve">
<g>
	<path d="M450.923,77.265c-9.521-9.521-22.194-14.764-35.688-14.764s-26.167,5.243-35.688,14.764l-99.513,99.513
		c-1.875,1.876-2.929,4.419-2.929,7.071s1.054,5.195,2.929,7.071l0.266,0.266L107.06,364.428
		c-15.35,15.351-24.876,29.715-28.314,42.694c-2.527,9.542-1.732,18.487,2.155,26.021l-9.551,9.551
		c-3.905,3.905-3.905,10.237,0,14.143c1.953,1.952,4.512,2.929,7.071,2.929s5.119-0.977,7.071-2.929l9.559-9.559
		c3.984,2.057,9.013,3.61,15.162,3.61c12.852,0,30.545-6.761,53.546-29.761l173.242-173.241l0.266,0.266
		c1.952,1.952,4.512,2.929,7.071,2.929s5.119-0.977,7.071-2.929l99.513-99.513C470.6,128.961,470.6,96.944,450.923,77.265z
		 M101.02,427.167c-7.874-7.873-2.86-23.011,13.323-41.314l27.987,27.987c-12.588,11.128-23.682,16.99-31.94,16.988
		C106.643,430.827,103.477,429.624,101.02,427.167z M156.688,399.914L128.274,371.5l166.17-166.17l7.136,7.136l-14.142,14.143
		c-3.905,3.905-3.905,10.237,0,14.143c1.953,1.952,4.512,2.929,7.071,2.929s5.119-0.977,7.071-2.929l14.142-14.143l7.136,7.136
		L156.688,399.914z M436.781,134.497l-92.442,92.441l-14.474-14.473l95.244-95.244c3.905-3.905,3.905-10.237,0-14.143
		c-3.905-3.904-10.237-3.904-14.143,0l-95.244,95.245l-14.474-14.474l92.442-92.441c5.743-5.743,13.395-8.906,21.545-8.906
		s15.802,3.163,21.545,8.906C448.66,103.287,448.66,122.617,436.781,134.497z"/>
	<path d="M152.325,179.005l0.721-20.041l20.042-0.722c5.24-0.188,9.445-4.393,9.634-9.633l1.057-29.342
		c0.199-5.52-4.114-10.155-9.634-10.354c-5.521-0.222-10.155,4.113-10.354,9.633l-0.722,20.044l-20.043,0.722
		c-5.241,0.188-9.445,4.394-9.634,9.634l-0.721,20.04l-20.039,0.721c-5.519,0.198-9.833,4.833-9.634,10.353
		c0.194,5.396,4.63,9.641,9.987,9.641c0.121,0,0.243-0.002,0.366-0.007l29.338-1.055
		C147.932,188.45,152.137,184.246,152.325,179.005z"/>
	<path d="M119.601,306.835c2.652,0,5.196-1.054,7.071-2.929l171.32-171.319c1.875-1.876,2.929-4.419,2.929-7.071
		s-1.054-5.195-2.929-7.071L188.391,8.843c-3.905-3.904-10.237-3.904-14.143,0L2.929,180.162c-3.905,3.905-3.905,10.237,0,14.143
		L112.53,303.906C114.405,305.781,116.949,306.835,119.601,306.835z M181.319,30.057l95.459,95.459L119.601,282.693l-95.459-95.459
		L181.319,30.057z"/>
</g>
<g>
</g>
<g>
</g>
<g>
</g>
<g>
</g>
<g>
</g>
<g>
</g>
<g>
</g>
<g>
</g>
<g>
</g>
<g>
</g>
<g>
</g>
<g>
</g>
<g>
</g>
<g>
</g>
<g>
</g>
</svg>
