<?xml version="1.0" encoding="iso-8859-1"?>
<!-- Generator: Adobe Illustrator 19.0.0, SVG Export Plug-In . SVG Version: 6.00 Build 0)  -->
<svg version="1.1" id="Layer_1" xmlns="http://www.w3.org/2000/svg" xmlns:xlink="http://www.w3.org/1999/xlink" x="0px" y="0px"
	 viewBox="0 0 512 512" style="enable-background:new 0 0 512 512;" xml:space="preserve">
<path style="fill:#31CCC9;" d="M480.107,110.47c11.493,11.506,11.493,30.156,0,41.65l-24.304,24.304l-56.188-56.188l24.304-24.304
	c11.493-11.493,30.144-11.493,41.65,0L480.107,110.47z"/>
<polygon style="fill:#F27258;" points="455.803,176.424 393.738,238.489 240.732,391.495 184.544,335.307 304.896,214.955
	304.909,214.955 393.738,126.114 399.615,120.237 "/>
<path style="fill:#E4F5F4;" d="M162.949,413.09l77.783-21.595l153.006-153.006v75.534v172.191c0,8.101-6.561,14.662-14.662,14.662
	H37.44c-8.101,0-14.662-6.561-14.662-14.662V116.074h87.698c8.089,0,14.65-6.561,14.65-14.662V13.726h253.95
	c8.101,0,14.662,6.561,14.662,14.662v97.726l-88.829,88.841h-0.012L184.544,335.307L162.949,413.09z"/>
<g>
	<polygon style="fill:#31CCC9;" points="240.732,391.495 162.949,413.09 184.544,335.307 	"/>
	<path style="fill:#31CCC9;" d="M125.126,13.726v87.686c0,8.101-6.561,14.662-14.65,14.662H22.778L125.126,13.726z"/>
</g>
<path style="fill:#201F2E;" d="M489.147,100.385c16.327,16.327,16.327,42.892,0,59.219L249.772,398.979
	c-1.516,1.516-3.392,2.609-5.467,3.193l-77.77,21.595c-0.062,0.012-0.137,0.012-0.199,0.037c-0.398,0.099-0.808,0.186-1.23,0.249
	c-0.124,0.025-0.249,0.037-0.373,0.062c-0.509,0.062-1.006,0.099-1.528,0.099H99.898c-6.871,0-12.425-5.567-12.425-12.425
	s5.554-12.425,12.425-12.425h53.864l19.073-68.675c0.572-2.063,1.665-3.951,3.181-5.467l0.075-0.075H99.898
	c-6.871,0-12.425-5.567-12.425-12.425s5.554-12.425,12.425-12.425h101.043l74.229-74.217H99.896
	c-6.871,0-12.425-5.567-12.425-12.425c0-6.871,5.554-12.425,12.425-12.425h200.123l81.585-81.597
	c-0.012-0.224-0.037-0.46-0.037-0.696V27.087c0-1.23-0.994-2.237-2.224-2.237H137.806v75.26c0,14.935-12.14,27.087-27.075,27.087
	H35.458v357.714c0,1.23,1.006,2.237,2.237,2.237h341.648c1.23,0,2.224-1.006,2.224-2.237V312.722
	c0-6.859,5.567-12.425,12.425-12.425s12.425,5.567,12.425,12.425v172.191c0,14.935-12.152,27.087-27.075,27.087H37.695
	c-14.935,0-27.087-12.152-27.087-27.087V114.773c0-3.293,1.305-6.461,3.641-8.785L116.596,3.641C118.92,1.305,122.088,0,125.381,0
	h253.962c14.923,0,27.075,12.152,27.075,27.087v67.731l8.971-8.971c7.915-7.903,18.427-12.264,29.61-12.264
	c11.183,0,21.695,4.361,29.61,12.264L489.147,100.385z M471.577,142.034c6.635-6.635,6.635-17.433,0-24.08l-14.538-14.525
	c-3.218-3.218-7.492-4.995-12.04-4.995c-4.548,0-8.822,1.777-12.04,4.995l-15.519,15.507l38.618,38.618L471.577,142.034z
	 M240.986,372.625l197.501-197.501l-38.618-38.606L202.368,334.007L240.986,372.625z M181.059,393.934l36.083-10.015l-26.068-26.068
	L181.059,393.934z M112.957,100.111V42.42l-59.915,59.928h57.691C111.961,102.348,112.957,101.341,112.957,100.111z"/>
<g>
	<path style="fill:#FFDB6F;" d="M471.577,117.954c6.635,6.648,6.635,17.445,0,24.08l-15.519,15.519l-38.618-38.618l15.519-15.507
		c3.218-3.218,7.492-4.995,12.04-4.995c4.548,0,8.822,1.777,12.04,4.995L471.577,117.954z"/>
	<polygon style="fill:#FFDB6F;" points="217.143,383.919 181.059,393.934 191.074,357.851 	"/>
</g>
<path style="fill:#31CCC9;" d="M112.957,42.42v57.691c0,1.23-0.994,2.237-2.224,2.237H53.041L112.957,42.42z"/>
<g>
</g>
</svg>
